<?xml version="1.0" encoding="utf-8"?>
<!-- Generator: Adobe Illustrator 18.1.0, SVG Export Plug-In . SVG Version: 6.00 Build 0)  -->
<svg version="1.1" id="Layer_1" xmlns="http://www.w3.org/2000/svg" xmlns:xlink="http://www.w3.org/1999/xlink" x="0px" y="0px"
	 viewBox="0 0 582 144" enable-background="new 0 0 582 144" xml:space="preserve">
<rect fill="#FFFFFF" width="582" height="144"/>
<rect x="6.5" y="6.3" fill="#CB2041" width="251.3" height="132"/>
<g>
</g>
<g>
	<path fill="#FFFFFF" d="M40.5,107c-0.8,0-1.7,0-2.5-0.8c-0.8-0.8-0.8-1.7-0.8-2.5V39.1c0-1.6,0.2-2.1,0.6-2.8c0.5-0.6,1.2-1,2.1-1
		c1,0,1.7,0.4,2.1,1c0.5,0.7,0.6,1.2,0.6,2.8v63.1h34.8c1.4,0,2,0.2,2.5,0.5c0.6,0.5,1,1.1,1,1.9c0,0.8-0.3,1.4-1,1.9
		c-0.5,0.3-1.1,0.5-2.5,0.5H40.5z"/>
	<path fill="#FFFFFF" d="M95.6,84c0,12.2,5.5,19,15.7,19c4.1,0,8-1.1,11.1-3.8c1.4-1.3,2-1.7,2.9-1.7c1.2,0,2.3,1.1,2.3,2.3
		c0,2.1-3.5,4.3-5.1,5.2c-2.7,1.5-6.7,2.6-11.5,2.6c-13.3,0-20.6-8.6-20.6-24.7c0-15.9,7.4-24.7,19.4-24.7c12,0,19.3,8.8,19.3,22.7
		c0,0.6,0,1.7-0.7,2.4c-0.7,0.7-1.6,0.7-2.4,0.7H95.6z M124,79.7c-0.2-4-0.5-5.9-1.7-8.9c-2-5-6.8-8.1-12.5-8.1
		c-5.7,0-10.5,3.1-12.5,8.1c-1.2,3-1.5,4.9-1.7,8.9H124z"/>
	<path fill="#FFFFFF" d="M173.8,102.2c-4.1,4.1-8.1,5.4-14.7,5.4c-7.2,0-11.2-1.2-14.3-4.4c-2.2-2.3-3.6-5.7-3.6-9.5
		c0-8.8,6.5-13.9,16.7-13.9h15.9v-4.6c0-8.1-3.7-12.5-13.1-12.5c-5.8,0-8.7,1.6-12.2,5c-1.1,1.1-2,1.3-2.7,1.3
		c-0.6,0-1.2-0.2-1.6-0.6c-0.4-0.4-0.7-0.8-0.7-1.7c0-1.4,1.5-3.2,4.6-5.3c3.4-2.3,7.2-3.3,12.5-3.3c12.1,0,18.3,5.6,18.3,15.8v29.9
		c0,1.4-0.1,1.9-0.5,2.5c-0.4,0.6-1.2,1-2.1,1s-1.7-0.4-2.1-1c-0.4-0.6-0.5-1.2-0.5-2.5V102.2z M173.8,84h-15.5
		c-7.8,0-11.8,3.4-11.8,9.7c0,6.4,4.1,9.4,12.6,9.4c4.4,0,8.6-0.4,12-3.7c1.8-1.7,2.7-4.7,2.7-9.2V84z"/>
	<path fill="#FFFFFF" d="M230,77.2c0-9.3-4.6-14.4-13.3-14.4c-8.7,0-13.6,5.2-13.6,14.4v26.7c0,1.4-0.1,1.9-0.5,2.5
		c-0.4,0.6-1.2,1-2.1,1s-1.6-0.4-2.1-1c-0.4-0.6-0.5-1.2-0.5-2.5v-42c0-1.4,0.1-1.9,0.5-2.5c0.4-0.6,1.2-1,2.1-1s1.6,0.4,2.1,1
		c0.4,0.6,0.5,1.2,0.5,2.5v2.6c3.6-4.2,8.4-6.3,14.2-6.3c5.4,0,9.8,1.6,12.9,4.6c3.3,3.1,5,7.7,5,13.4v27.7c0,1.4-0.1,1.9-0.6,2.5
		c-0.4,0.6-1.2,1-2,1s-1.7-0.4-2.1-1c-0.4-0.6-0.5-1.2-0.5-2.5V77.2z"/>
</g>
<g>
	<path fill="#CB2041" d="M288.7,39.1c0-1.5,0.4-2.3,1-2.9c0.5-0.5,1.2-0.8,2-0.8c0.6,0,1.2,0.1,1.8,0.5c0.5,0.3,1,1.1,1.6,2.3
		l23.6,52.5l23.6-52.5c0.6-1.2,1.1-2,1.6-2.3c0.6-0.4,1.2-0.5,1.8-0.5c0.8,0,1.4,0.3,2,0.8c0.6,0.6,0.9,1.4,0.9,2.9v64.6
		c0,1.5-0.1,2-0.6,2.8c-0.4,0.6-1.1,1-2.1,1c-0.9,0-1.6-0.4-2.1-1c-0.4-0.7-0.6-1.2-0.6-2.8V48.8L322.5,94c-1,2.1-1.9,3.3-3.9,3.3
		c-2,0-3-1.3-3.9-3.3l-20.6-45.2v54.9c0,1.5-0.1,2-0.6,2.8c-0.4,0.6-1.1,1-2.1,1c-0.9,0-1.6-0.4-2.1-1c-0.4-0.7-0.6-1.2-0.6-2.8
		V39.1z"/>
	<path fill="#CB2041" d="M371.6,84c0,12.2,5.5,19,15.7,19c4.1,0,8-1.1,11.1-3.8c1.4-1.3,2-1.7,2.9-1.7c1.2,0,2.3,1.1,2.3,2.3
		c0,2.2-3.5,4.3-5.1,5.2c-2.7,1.5-6.7,2.6-11.5,2.6c-13.3,0-20.6-8.6-20.6-24.7c0-15.9,7.4-24.7,19.4-24.7c12,0,19.3,8.8,19.3,22.7
		c0,0.6,0,1.7-0.7,2.4c-0.7,0.7-1.6,0.7-2.4,0.7H371.6z M400,79.7c-0.2-4-0.5-5.9-1.7-8.9c-2-5-6.8-8.1-12.5-8.1
		c-5.7,0-10.5,3.1-12.5,8.1c-1.2,3-1.5,4.9-1.7,8.9H400z"/>
	<path fill="#CB2041" d="M434.2,107c-7.6,0-11.6-5.3-11.6-12.6V63h-4.1c-1.1,0-1.7-0.1-2.2-0.4c-0.5-0.4-0.8-0.9-0.8-1.7
		c0-0.8,0.3-1.3,0.8-1.6c0.5-0.4,1.1-0.5,2.2-0.5h4.1V46.5c0-1.4,0.1-1.9,0.5-2.5s1.2-1,2.1-1s1.6,0.4,2.1,1
		c0.4,0.6,0.5,1.1,0.5,2.5v12.3h8.4c1.1,0,1.6,0.1,2.1,0.5c0.6,0.4,0.8,0.9,0.8,1.6c0,0.8-0.3,1.3-0.8,1.7c-0.5,0.4-1,0.4-2.1,0.4
		h-8.4v31.4c0,5,2.3,8,7.3,8h0.8c1.2,0,1.8,0.1,2.3,0.5c0.6,0.4,0.9,1,0.9,1.8s-0.3,1.3-0.9,1.8c-0.5,0.3-1.1,0.5-2.5,0.5H434.2z"/>
	<path fill="#CB2041" d="M454,61.9c0-1.4,0.1-1.9,0.5-2.5c0.4-0.6,1.2-1,2.1-1s1.6,0.4,2.1,1c0.4,0.6,0.5,1.2,0.5,2.5v3.3
		c2.8-4.5,8.4-7,14-7c3.3,0,6,0.6,8.8,2.3c1.3,0.8,2.5,1.7,2.5,3.1c0,0.6-0.3,1.3-0.7,1.7c-0.5,0.5-1.1,0.8-1.8,0.8
		c-0.7,0-1.3-0.3-3.1-1.4c-2-1.2-4.2-1.9-6.6-1.9c-8.6,0-13.1,6.8-13.1,14.6v26.5c0,1.3-0.1,1.9-0.5,2.5c-0.4,0.6-1.2,1-2.1,1
		s-1.6-0.4-2.1-1c-0.4-0.6-0.5-1.2-0.5-2.5V61.9z"/>
	<path fill="#CB2041" d="M493.8,38.9c0-2.1,1.6-3.7,3.7-3.7s3.7,1.6,3.7,3.7c0,2-1.6,3.7-3.7,3.7S493.8,40.9,493.8,38.9z
		 M494.9,61.9c0-1.4,0.1-1.9,0.5-2.5c0.4-0.6,1.2-1,2.1-1s1.6,0.4,2.1,1c0.4,0.6,0.5,1.2,0.5,2.5v42c0,1.3-0.1,1.9-0.5,2.5
		c-0.4,0.6-1.2,1-2.1,1s-1.6-0.4-2.1-1c-0.4-0.6-0.5-1.2-0.5-2.5V61.9z"/>
	<path fill="#CB2041" d="M528,82.9l-12.4-19.7c-0.6-1-0.9-1.6-0.9-2.3c0-0.9,0.4-1.6,1.3-2.2c0.4-0.3,0.9-0.4,1.3-0.4
		c1.1,0,1.9,0.6,2.7,2.1l11.5,18.9l11.5-18.9c0.8-1.4,1.6-2.1,2.7-2.1c0.5,0,0.9,0.1,1.3,0.4c0.9,0.6,1.3,1.3,1.3,2.2
		c0,0.6-0.3,1.3-0.9,2.3l-12.4,19.7l12.5,19.7c0.6,1,0.9,1.6,0.9,2.3c0,0.9-0.4,1.6-1.3,2.1c-0.5,0.3-0.9,0.4-1.4,0.4
		c-1.1,0-1.8-0.7-2.7-2l-11.5-18.8l-11.5,18.8c-0.9,1.4-1.6,2-2.7,2c-0.5,0-0.9-0.1-1.4-0.4c-0.8-0.5-1.3-1.3-1.3-2.1
		c0-0.7,0.3-1.3,0.9-2.3L528,82.9z"/>
</g>
<g>
</g>
<g>
</g>
<g>
</g>
<g>
</g>
<g>
</g>
<g>
</g>
</svg>
